<svg width="24" height="24" viewBox="0 0 24 24" fill="none" xmlns="http://www.w3.org/2000/svg">
<circle cx="12" cy="12" r="9" fill="#05C7A4"/>
<path fill-rule="evenodd" clip-rule="evenodd" d="M14.97 8.97001C15.1099 8.83128 15.2989 8.7532 15.4959 8.75266C15.693 8.75211 15.8823 8.82915 16.023 8.9671C16.1637 9.10505 16.2445 9.29285 16.2479 9.48987C16.2512 9.6869 16.1769 9.87734 16.041 10.02L12.049 15.01C11.9804 15.0839 11.8976 15.1432 11.8055 15.1844C11.7135 15.2255 11.614 15.2477 11.5132 15.2496C11.4124 15.2514 11.3122 15.233 11.2187 15.1952C11.1252 15.1575 11.0403 15.1013 10.969 15.03L8.32397 12.384C8.25029 12.3153 8.19119 12.2325 8.15019 12.1405C8.1092 12.0485 8.08716 11.9492 8.08538 11.8485C8.08361 11.7478 8.10213 11.6478 8.13985 11.5544C8.17757 11.461 8.23372 11.3762 8.30494 11.305C8.37616 11.2337 8.46099 11.1776 8.55438 11.1399C8.64777 11.1022 8.74779 11.0836 8.8485 11.0854C8.9492 11.0872 9.04851 11.1092 9.14051 11.1502C9.23251 11.1912 9.31531 11.2503 9.38397 11.324L11.478 13.417L14.951 8.99201C14.9572 8.98426 14.9639 8.97691 14.971 8.97001H14.97Z" fill="white"/>
</svg>
